<!DOCTYPE svg PUBLIC "-//W3C//DTD SVG 1.1//EN" "http://www.w3.org/Graphics/SVG/1.1/DTD/svg11.dtd">
<svg width="41" height="16" viewBox="0 0 41 16" fill="none" xmlns="http://www.w3.org/2000/svg">
<path fill-rule="evenodd" clip-rule="evenodd" d="M0.795723 7.45785V4.947C0.795723 4.54306 1.08946 4.20092 1.48869 4.13868C2.02296 4.05506 2.16546 3.93004 2.31931 3.79506C2.44135 3.68799 2.57053 3.57466 2.90802 3.47075C3.32479 3.34231 4.19625 3.00325 5.19638 2.61412C6.82155 1.98181 8.78651 1.21729 9.69258 1.00943C9.77482 0.99057 9.87327 0.967113 9.98696 0.940022C11.8974 0.484803 18.1132 -0.99628 24.0806 1.07077C24.5246 1.22445 25.2688 1.71029 26.1898 2.31159L26.1898 2.31159L26.1898 2.3116C27.4882 3.15924 29.138 4.23629 30.7936 4.93564C31.627 4.95381 39.8766 6.67224 40.3159 7.84997C40.7113 8.91066 40.8624 9.47972 40.9477 9.80082L40.9477 9.80095L40.9477 9.80113L40.9478 9.80135C40.9572 9.83671 40.9658 9.86906 40.9738 9.89872C41.0548 10.1977 40.9738 11.6285 40.3609 12.6249C39.7361 12.978 38.5334 13.2152 37.143 13.3742L37.1523 13.3252C37.1653 13.2569 37.1783 13.1891 37.1871 13.1198C37.2112 12.9362 37.2226 12.7685 37.2226 12.6086C37.2226 10.3617 35.3938 8.53334 33.1448 8.53334C30.8959 8.53334 29.0671 10.3613 29.0671 12.6086C29.0671 12.724 29.0748 12.8385 29.0834 12.9512C29.1048 13.2034 29.1503 13.4483 29.2162 13.6841L10.9639 13.277C10.9671 13.2588 10.9706 13.2406 10.9741 13.2224C10.9806 13.1884 10.9872 13.1544 10.9917 13.1198C11.0158 12.9371 11.0271 12.769 11.0271 12.6086C11.0271 10.3617 9.19833 8.53379 6.94939 8.53379C4.70045 8.53379 2.87119 10.3613 2.87119 12.6086C2.87119 12.6172 1.32545 11.9743 1.32545 11.9743C1.32545 11.9743 0 11.2691 0 9.32894C-0.000453949 8.0349 0.795723 7.45785 0.795723 7.45785ZM36.5405 12.6077C36.5405 10.7334 35.02 9.21444 33.1448 9.21444C31.2692 9.21444 29.7491 10.7334 29.7496 12.6072C29.7496 12.7049 29.7559 12.8017 29.7637 12.8967C29.9114 14.6351 31.3683 16 33.1453 16C34.8754 16 36.3 14.7064 36.5105 13.0339C36.5287 12.8944 36.5405 12.7522 36.5405 12.6077ZM34.1524 12.0211L34.8445 11.3291C35.06 11.6131 35.2014 11.9502 35.2514 12.3191H34.2756C34.2484 12.2128 34.2061 12.1133 34.1524 12.0211ZM35.256 12.9067H34.2725C34.2447 13.0112 34.2038 13.1102 34.1492 13.2011L34.8431 13.894C35.0582 13.6123 35.2028 13.2751 35.256 12.9067ZM34.4234 14.307C34.1406 14.5201 33.8064 14.6642 33.4385 14.7155V13.7363C33.5427 13.7091 33.6423 13.67 33.7332 13.6168L34.4234 14.307ZM33.4385 11.479C33.5454 11.5072 33.6454 11.549 33.7386 11.604L34.4302 10.9129C34.1461 10.697 33.8087 10.5544 33.4385 10.503V11.479ZM32.5501 11.6035L31.8589 10.9124C32.1427 10.697 32.4805 10.5535 32.8506 10.5021L32.8502 11.4786C32.7438 11.5067 32.6428 11.5485 32.5501 11.6035ZM32.8506 14.7146V13.7368C32.746 13.7091 32.6474 13.6704 32.5564 13.6168L31.8657 14.307C32.1486 14.5201 32.4832 14.6632 32.8506 14.7146ZM32.1408 13.2006L31.4447 13.8972C31.2292 13.6141 31.0905 13.2742 31.0386 12.9071H32.0144C32.0422 13.0116 32.0863 13.1093 32.1408 13.2006ZM32.1363 12.0211L31.4433 11.3291C31.2292 11.6131 31.0878 11.9502 31.0368 12.3196H32.0131C32.0408 12.2128 32.0826 12.1133 32.1363 12.0211ZM10.3451 12.6077C10.3451 10.7334 8.82456 9.21444 6.94938 9.21444C5.07375 9.21444 3.55324 10.7334 3.55415 12.6072C3.55415 12.7049 3.56051 12.8017 3.56824 12.8967C3.71647 14.6351 5.17333 16 6.95029 16C8.67997 16 10.1045 14.7064 10.3151 13.0339C10.3333 12.8944 10.3451 12.7522 10.3451 12.6077ZM8.64905 11.3291L7.95745 12.0211C8.01111 12.1133 8.05339 12.2128 8.08068 12.3191H9.05646C9.00599 11.9502 8.86458 11.6131 8.64905 11.3291ZM8.07658 12.9067H9.0601C9.00781 13.2751 8.86276 13.6123 8.64677 13.894L7.95336 13.2011C8.00792 13.1102 8.04885 13.0112 8.07658 12.9067ZM7.24312 14.7155C7.61097 14.6642 7.94518 14.5201 8.228 14.307L7.53777 13.6168C7.44682 13.67 7.34724 13.7091 7.24312 13.7363V14.7155ZM7.54322 11.604C7.45001 11.549 7.34997 11.5072 7.24312 11.479V10.503C7.6137 10.5544 7.95063 10.697 8.23482 10.9129L7.54322 11.604ZM6.65474 10.5021C6.28461 10.5535 5.94677 10.697 5.66304 10.9124L6.35464 11.6035C6.4474 11.5485 6.54834 11.5058 6.65474 11.4786V10.5021ZM6.65474 13.7368V14.7146C6.2878 14.6632 5.95268 14.5201 5.66986 14.307L6.36055 13.6168C6.45149 13.6704 6.55016 13.7091 6.65474 13.7368ZM5.24926 13.8972L5.94541 13.2015C5.89084 13.1098 5.84628 13.0125 5.819 12.9076H4.84322C4.89505 13.2742 5.03328 13.6141 5.24926 13.8972ZM5.24836 11.3291L5.94086 12.0211C5.88675 12.1133 5.84538 12.2128 5.81764 12.3196H4.8414C4.89278 11.9502 5.03374 11.6131 5.24836 11.3291ZM26.4341 5.30868L18.8748 5.0774L17.904 1.10485C17.904 1.10485 23.9606 1.19708 26.9657 3.92285C26.9657 3.92285 26.295 4.17684 26.4341 5.30868ZM10.391 4.73163L17.2797 4.9629L16.6554 1.1053C13.0951 1.05896 11.0612 1.84411 11.0612 1.84411L10.0441 3.48438L10.391 4.73163ZM8.4267 4.708H6.50742C6.42375 4.24682 6.6511 3.78472 7.06761 3.56844C7.75375 3.21176 8.90596 2.64743 10.3455 2.07493L8.4267 4.708Z" fill="#8A8A8F"/>
</svg>
