<!DOCTYPE svg PUBLIC "-//W3C//DTD SVG 1.1//EN" "http://www.w3.org/Graphics/SVG/1.1/DTD/svg11.dtd">
<svg width="37" height="16" viewBox="0 0 37 16" fill="none" xmlns="http://www.w3.org/2000/svg">
<path fill-rule="evenodd" clip-rule="evenodd" d="M7.95134 0.000361126L17.674 0.122689C17.9657 0.126116 18.199 0.36529 18.1953 0.656547C18.1922 0.943351 17.9592 1.17362 17.6737 1.17704L7.93796 1.05471C7.6463 1.05129 7.41296 0.812113 7.4164 0.520856C7.42051 0.229598 7.66791 -0.0106039 7.95134 0.000361126ZM35.4504 12.3812C35.4504 10.3822 33.8274 8.76208 31.8262 8.76208C29.8247 8.76208 28.2024 10.3822 28.2024 12.3812C28.2024 12.4854 28.2096 12.5878 28.2178 12.6899C28.375 14.5437 29.9301 16 31.8262 16C33.673 16 35.1934 14.6198 35.4182 12.8363C35.4377 12.6865 35.4504 12.5357 35.4504 12.3812ZM32.634 11.9107L33.1888 11.3563C33.3611 11.5835 33.4746 11.8542 33.5148 12.1496H32.7324C32.7112 12.0646 32.6772 11.9848 32.634 11.9107ZM33.5182 12.6207H32.7297C32.7077 12.7047 32.6748 12.7835 32.6312 12.8565L33.1874 13.4119C33.3597 13.1847 33.476 12.9154 33.5182 12.6207ZM32.2984 13.1892L32.8512 13.7412C32.6247 13.9122 32.3564 14.0277 32.0616 14.0688L32.062 13.2841C32.1457 13.2629 32.2253 13.232 32.2984 13.1892ZM32.0616 11.4769C32.1477 11.4985 32.2274 11.5331 32.3022 11.577L32.8563 11.0229C32.6285 10.8502 32.3581 10.7358 32.0616 10.6947V11.4769ZM31.35 11.5773L30.7955 11.0236C31.023 10.8506 31.2937 10.7361 31.5902 10.695V11.4773C31.5047 11.4989 31.4241 11.5335 31.35 11.5773ZM31.5902 14.0681V13.2841C31.5064 13.2629 31.4272 13.231 31.3541 13.1885L30.8009 13.7409C31.0274 13.9119 31.2961 14.027 31.5902 14.0681ZM31.0216 12.8558L30.4636 13.4133C30.291 13.1875 30.1802 12.9147 30.138 12.6204H30.9204C30.9427 12.705 30.9777 12.7825 31.0216 12.8558ZM31.0178 11.9111L30.4626 11.3567C30.291 11.5842 30.1775 11.8542 30.137 12.1499H30.9193C30.9409 12.0646 30.9749 11.9851 31.0178 11.9111ZM10.0753 12.3812C10.0753 10.3822 8.45197 8.76208 6.45116 8.76208C4.44932 8.76208 2.82698 10.3822 2.82698 12.3812C2.82698 12.4854 2.83453 12.5878 2.84242 12.6899C2.99923 14.5437 4.55466 16 6.45116 16C8.2979 16 9.81799 14.6198 10.0427 12.8363C10.0626 12.6865 10.0753 12.5357 10.0753 12.3812ZM7.81374 11.3563L7.25855 11.9107C7.30213 11.9848 7.3361 12.0646 7.35772 12.1496H8.13938C8.09923 11.8542 7.986 11.5835 7.81374 11.3563ZM7.35429 12.6207H8.14281C8.1006 12.9154 7.98462 13.1847 7.81237 13.4119L7.25581 12.8565C7.29939 12.7835 7.33301 12.7047 7.35429 12.6207ZM7.4761 13.7412L6.92297 13.1892C6.85023 13.232 6.77062 13.2629 6.68689 13.2841V14.0688C6.98096 14.0277 7.24963 13.9122 7.4761 13.7412ZM6.92674 11.577C6.85194 11.5331 6.77233 11.4985 6.68655 11.4769V10.6947C6.98267 10.7358 7.25306 10.8502 7.4809 11.0229L6.92674 11.577ZM6.21474 10.695C5.91793 10.7361 5.64788 10.8506 5.42039 11.0236L5.9742 11.5773C6.04901 11.5335 6.12964 11.4989 6.21474 11.4773V10.695ZM6.21474 13.2841V14.0681C5.92068 14.027 5.652 13.9119 5.42519 13.7409L5.97866 13.1885C6.05141 13.231 6.13102 13.2629 6.21474 13.2841ZM5.08823 13.4133L5.64651 12.8558C5.60225 12.7825 5.56759 12.705 5.5446 12.6204H4.76294C4.80481 12.9147 4.91529 13.1875 5.08823 13.4133ZM5.08686 11.3567L5.64239 11.9111C5.5995 11.9851 5.56553 12.0646 5.54391 12.1499H4.76191C4.80206 11.8542 4.91529 11.5842 5.08686 11.3567ZM26.276 12.2822H11.7968C11.5052 12.2822 11.2691 12.5183 11.2691 12.8095C11.2691 13.1011 11.5052 13.3369 11.7968 13.3369H26.276C26.5677 13.3369 26.8038 13.1011 26.8038 12.8095C26.8038 12.5183 26.5677 12.2822 26.276 12.2822ZM0.147106 9.27298C0.269604 9.12358 0.454212 9.03723 0.647396 9.03723H1.24754L1.85728 2.36983C1.89091 2.00182 2.20248 1.72187 2.57306 1.72735L21.7394 1.98434C22.0063 1.98845 22.2575 2.11318 22.4215 2.32391L24.6968 5.24437L33.1476 5.70524C33.5529 5.7306 33.9238 5.94133 34.1516 6.27679L34.5713 6.89323C34.5713 6.89323 35.2898 7.14577 35.4823 7.30476C35.6494 7.44285 35.9819 8.01372 35.9819 8.01372C36.0451 8.10281 36.0526 8.22034 36.0022 8.31662C35.9521 8.4136 35.8519 8.47425 35.7424 8.47425V9.12392H36.3625C36.7149 9.12426 37 9.40935 37 9.76058V10.9338C37 11.3697 36.6462 11.7237 36.2091 11.7237H35.7853L34.6931 8.71445C34.5936 8.44032 34.3328 8.25769 34.0412 8.25769H30.2289C30.0128 8.25769 29.8086 8.35843 29.6775 8.53044L27.1095 11.8967H10.7053L8.82427 8.72713C8.69971 8.51673 8.47325 8.3879 8.22791 8.3879H4.7276C4.48055 8.3879 4.25236 8.51913 4.1278 8.73227L2.28345 11.897H1.62189C0.926361 11.897 0.327251 11.4053 0.192741 10.7234L0.0129395 9.80992C-0.0258331 9.61974 0.0235786 9.42306 0.147106 9.27298ZM22.4325 5.91769H17.4768L16.805 4.70434V2.95406L21.8176 3.01368C21.903 3.01505 21.9833 3.05548 22.0348 3.12367L23.2337 4.70434H22.4325V5.91769ZM9.93568 5.91769H15.2015V2.93007L9.05692 2.85366V5.0398L9.93568 5.91769ZM7.73722 2.83378V5.91769H2.95668L3.16462 2.89992C3.17046 2.82487 3.23291 2.76697 3.3084 2.76799L7.73722 2.83378Z" fill="#8A8A8F"/>
</svg>
