<!DOCTYPE svg PUBLIC "-//W3C//DTD SVG 1.1//EN" "http://www.w3.org/Graphics/SVG/1.1/DTD/svg11.dtd">
<svg width="41" height="16" viewBox="0 0 41 16" fill="none" xmlns="http://www.w3.org/2000/svg">
<path fill-rule="evenodd" clip-rule="evenodd" d="M40.0054 6.23829C39.9633 5.46268 37.0431 4.90237 32.4908 4.23916C30.3702 3.93022 29.8647 3.20219 29.3435 2.45163C28.7459 1.5911 28.1278 0.700954 25.0316 0.378839C19.2353 -0.224317 14.4686 -0.0953261 14.0817 0.680724C13.6948 1.45695 13.5663 4.17023 13.5663 4.17023H1.81321C0.825214 4.47211 1.25537 8.47828 1.25537 8.47828C1.25845 8.49354 1.26142 8.50608 1.26443 8.51884C1.26664 8.52818 1.26888 8.53763 1.27121 8.54835C0.541566 8.54844 0 9.09241 0 9.76239C0 10.4335 0.542003 10.9775 1.21003 10.9775H2.66433C3.03349 10.9775 4.1995 10.811 5.17165 10.5499C5.33524 10.5845 5.68668 10.3198 6.14383 9.97544C6.90537 9.40179 7.96024 8.60718 8.92873 8.60718C11.0602 8.60718 12.7936 10.3466 12.7936 12.4846H30.1722C30.1722 10.3465 31.9059 8.60718 34.0369 8.60718C36.043 8.60718 37.6956 10.1494 37.8829 12.113C38.8099 11.9097 39.8378 11.6648 40.2632 11.4944C41.1221 11.1496 40.9931 8.0813 40.9931 8.0813C40.9931 8.0813 40.0486 7.01372 40.0054 6.23829ZM15.6136 1.95918C15.6136 1.41817 16.0522 0.979592 16.5932 0.979592H19.5204C20.0614 0.979592 20.5 1.41817 20.5 1.95918V3.91837H15.6136V1.95918ZM22.541 1.07129C21.9689 1.02197 21.4773 1.47305 21.4773 2.04726V3.91837H29.3758L28.5702 2.70454C28.0749 1.95829 27.2664 1.47863 26.374 1.40171L22.541 1.07129ZM9.09864 9.46939C7.30013 9.46939 5.84091 10.9311 5.84091 12.7348C5.84091 12.8743 5.85232 13.0103 5.87021 13.1454C6.07224 14.7547 7.43862 16 9.09864 16C10.8034 16 12.2015 14.686 12.3425 13.0134C12.3496 12.9213 12.3564 12.8288 12.3564 12.7348C12.3564 10.9311 10.8981 9.46939 9.09864 9.46939ZM8.37288 12.3104L7.87383 11.8101C7.71899 12.0151 7.61721 12.2593 7.58112 12.5258H8.28374C8.30318 12.4492 8.33371 12.3771 8.37288 12.3104ZM7.57804 12.951H8.28683C8.30595 13.0267 8.33618 13.0978 8.37535 13.1637L7.87506 13.6648C7.72023 13.4599 7.61597 13.2168 7.57804 12.951ZM8.67454 13.4639L8.17733 13.9619C8.3809 14.1162 8.62241 14.2204 8.88674 14.2575V13.5495C8.81148 13.5303 8.73992 13.5025 8.67454 13.4639ZM8.88705 11.9189C8.80994 11.9384 8.73838 11.9697 8.67114 12.0092L8.17301 11.5093C8.37782 11.3535 8.62087 11.2502 8.88705 11.2131V11.9189ZM10.0252 11.5099C9.82069 11.3538 9.57795 11.2505 9.31115 11.2134V11.9193C9.38765 11.9387 9.46013 11.97 9.52737 12.0095L10.0252 11.5099ZM9.31115 14.2569V13.5495C9.38641 13.5303 9.45797 13.5016 9.52336 13.4633L10.0209 13.9616C9.81699 14.1159 9.57549 14.2198 9.31115 14.2569ZM9.82193 13.163L10.3238 13.6661C10.4792 13.4623 10.5785 13.2162 10.6162 12.9506H9.91353C9.89287 13.027 9.86172 13.0969 9.82193 13.163ZM9.82563 12.3107L10.325 11.8104C10.4792 12.0157 10.581 12.2593 10.6171 12.5262H9.91415C9.89472 12.4492 9.86418 12.3774 9.82563 12.3107ZM30.9015 12.4083C30.9015 10.6046 32.3607 9.14286 34.1592 9.14286C35.9587 9.14286 37.417 10.6046 37.417 12.4083C37.417 12.5023 37.4102 12.5947 37.4031 12.6869C37.2621 14.3595 35.864 15.6735 34.1592 15.6735C32.4992 15.6735 31.1328 14.4281 30.9308 12.8189C30.9129 12.6838 30.9015 12.5478 30.9015 12.4083ZM32.9344 11.4836L33.4335 11.9838C33.3943 12.0506 33.3638 12.1226 33.3444 12.1993H32.6417C32.6778 11.9328 32.7796 11.6886 32.9344 11.4836ZM33.3474 12.6244H32.6386C32.6766 12.8903 32.7808 13.1333 32.9357 13.3383L33.436 12.8371C33.3968 12.7713 33.3666 12.7002 33.3474 12.6244ZM33.2379 13.6354L33.7351 13.1373C33.8005 13.176 33.8721 13.2038 33.9473 13.223V13.931C33.683 13.8939 33.4415 13.7897 33.2379 13.6354ZM33.7317 11.6827C33.799 11.6431 33.8705 11.6119 33.9477 11.5924V10.8866C33.6815 10.9237 33.4384 11.0269 33.2336 11.1828L33.7317 11.6827ZM34.3718 10.8869C34.6386 10.924 34.8813 11.0273 35.0858 11.1834L34.588 11.683C34.5207 11.6434 34.4483 11.6122 34.3718 11.5927V10.8869ZM34.3718 13.223V13.9304C34.6361 13.8933 34.8776 13.7894 35.0815 13.6351L34.584 13.1367C34.5186 13.1751 34.447 13.2038 34.3718 13.223ZM35.3844 13.3395L34.8825 12.8365C34.9223 12.7704 34.9535 12.7005 34.9741 12.6241H35.6768C35.6391 12.8897 35.5398 13.1358 35.3844 13.3395ZM35.3856 11.4839L34.8862 11.9841C34.9248 12.0509 34.9553 12.1226 34.9748 12.1996H35.6777C35.6416 11.9328 35.5398 11.6892 35.3856 11.4839Z" fill="#8A8A8F"/>
</svg>
